<?xml version="1.0" standalone="no"?>
<!DOCTYPE svg PUBLIC "-//W3C//DTD SVG 20010904//EN"
 "http://www.w3.org/TR/2001/REC-SVG-20010904/DTD/svg10.dtd">
<svg version="1.0" xmlns="http://www.w3.org/2000/svg"
 width="1500.000000pt" height="1500.000000pt" viewBox="0 0 1500.000000 1500.000000"
 preserveAspectRatio="xMidYMid meet">

<g transform="translate(0.000000,1500.000000) scale(0.100000,-0.100000)"
fill="#000000" stroke="none">
<path d="M8635 14874 c-404 -269 -583 -359 -804 -405 -201 -43 -461 -20 -645
56 -19 8 -19 8 -1 -22 23 -39 113 -93 380 -226 530 -265 968 -410 1438 -477
347 -49 618 -32 907 57 368 113 658 362 819 705 52 110 131 336 131 374 0 38
-37 32 -48 -8 -35 -121 -125 -302 -213 -428 -59 -85 -224 -253 -314 -322 -64
-48 -175 -114 -175 -104 0 4 -26 -11 -57 -32 -114 -77 -230 -122 -423 -164
-109 -23 -399 -35 -515 -21 l-70 9 90 46 c50 25 118 66 151 92 80 60 210 197
304 321 161 211 237 300 270 317 19 10 103 45 185 79 134 55 459 209 477 227
4 4 -16 8 -45 9 -48 3 -67 -5 -242 -91 -234 -117 -334 -156 -397 -156 -80 0
-356 45 -653 105 -107 22 -362 31 -450 16 -37 -7 -69 -10 -72 -7 -2 2 17 17
44 32 26 15 77 45 113 66 l65 38 -60 0 c-59 0 -63 -2 -190 -86z m642 -109
c136 -25 300 -53 363 -61 154 -22 164 -24 154 -33 -5 -4 -62 -24 -127 -45 -87
-27 -127 -35 -155 -31 -50 9 -146 26 -397 74 -365 70 -446 74 -620 31 -43 -11
-80 -18 -82 -16 -8 8 173 88 233 102 181 44 294 40 631 -21z m-339 -95 c78
-11 224 -33 324 -50 101 -17 198 -33 217 -36 18 -3 30 -9 25 -13 -19 -18 -439
-115 -634 -146 -239 -40 -392 -54 -695 -65 -215 -8 -213 -8 103 -6 l323 3 -68
-40 c-121 -70 -278 -145 -350 -167 l-72 -22 -248 103 c-136 56 -275 114 -308
129 l-60 27 125 6 c204 10 361 58 626 193 126 64 161 77 234 89 126 19 296 18
458 -5z m820 -108 c-19 -21 -48 -55 -64 -77 -93 -129 -263 -331 -337 -402
-132 -124 -281 -205 -378 -205 -83 1 -706 171 -742 203 -5 4 35 21 90 38 93
29 241 99 383 181 114 66 181 91 335 121 242 49 549 127 654 167 9 3 -13 -25
-47 -64 -35 -38 -122 -135 -192 -215 -146 -166 -216 -233 -310 -295 -35 -24
-61 -44 -57 -44 5 0 41 21 80 46 87 56 186 150 320 304 132 151 290 307 295
291 2 -7 -11 -29 -30 -49z m-988 -211 c-41 -20 -134 -70 -206 -109 -147 -80
-290 -132 -365 -132 -27 0 -49 4 -49 9 0 4 30 16 66 26 62 17 208 86 314 149
83 49 134 70 205 82 111 19 115 16 35 -25z"/>
<path d="M8948 14633 c7 -3 16 -2 19 1 4 3 -2 6 -13 5 -11 0 -14 -3 -6 -6z"/>
<path d="M9045 14611 c39 -10 72 -17 73 -16 9 9 -44 27 -91 31 l-52 5 70 -20z"/>
<path d="M9020 14020 c-19 -11 -31 -19 -27 -20 11 0 67 29 67 35 0 7 -1 7 -40
-15z"/>
<path d="M10567 14909 c-13 -30 -36 -88 -51 -129 -123 -333 -193 -473 -285
-577 -65 -73 -75 -88 -33 -48 101 93 194 255 272 470 18 50 55 143 82 209 27
65 47 121 44 123 -3 3 -16 -19 -29 -48z"/>
<path d="M4571 14923 c0 -17 -8 -86 -17 -153 -8 -67 -14 -124 -11 -126 7 -8
39 259 34 286 -4 22 -4 21 -6 -7z"/>
<path d="M4521 14564 c-6 -37 -10 -68 -8 -71 3 -2 10 26 17 62 7 36 10 68 8
70 -3 3 -10 -25 -17 -61z"/>
<path d="M4486 14408 c-144 -563 -473 -1063 -879 -1336 -327 -221 -709 -322
-1479 -392 -769 -70 -1113 -170 -1517 -441 -64 -42 -154 -110 -201 -149 -118
-100 -360 -337 -360 -352 0 -7 55 42 123 108 224 220 354 327 543 442 339 208
669 298 1324 361 689 67 953 117 1243 232 540 215 939 674 1157 1329 35 105
72 249 68 262 -2 5 -12 -24 -22 -64z"/>
<path d="M11980 9450 c6 -11 12 -20 14 -20 2 0 6 9 9 20 4 15 0 20 -14 20 -17
0 -18 -3 -9 -20z"/>
<path d="M10155 9229 c-183 -24 -332 -95 -451 -213 -130 -130 -182 -267 -170
-451 10 -152 50 -254 137 -349 63 -69 133 -118 254 -178 90 -45 112 -54 370
-149 312 -115 448 -206 517 -346 25 -51 31 -79 36 -151 6 -106 -8 -173 -52
-256 -107 -204 -365 -310 -711 -292 -217 12 -351 36 -567 103 -16 5 -18 -3
-18 -79 l0 -85 73 -21 c171 -49 355 -72 585 -72 180 0 294 16 420 59 114 40
184 83 274 172 131 129 185 277 175 478 -8 166 -57 274 -176 383 -106 99 -249
172 -541 278 -371 134 -494 213 -563 359 -54 114 -49 286 10 405 81 161 299
266 552 266 154 0 375 -43 529 -104 l63 -25 30 65 c16 36 29 70 29 74 0 19
-227 90 -367 115 -110 19 -345 27 -438 14z"/>
<path d="M8406 9211 l-38 -6 -498 -1242 -498 -1243 93 0 93 0 137 348 c76 191
154 388 174 437 l36 90 508 0 508 0 168 -427 c93 -234 172 -431 175 -437 9
-14 186 -15 186 -1 0 6 -13 43 -30 83 -16 39 -83 209 -149 377 -125 321 -296
757 -411 1050 -38 96 -132 337 -210 535 -160 411 -175 446 -192 444 -7 -1 -30
-5 -52 -8z m39 -338 c15 -52 152 -419 346 -929 38 -100 69 -184 69 -188 0 -3
-200 -6 -445 -6 -245 0 -445 2 -445 4 0 2 75 194 166 427 186 474 274 711 274
734 0 35 20 11 35 -42z"/>
<path d="M2298 9203 l-318 -3 0 -1240 0 -1240 675 0 675 0 0 80 0 80 -590 0
-590 0 2 533 3 532 558 3 557 2 0 75 0 75 -560 0 -560 0 0 475 0 475 590 0
590 0 0 73 0 74 -157 6 c-87 4 -248 6 -358 5 -110 -2 -343 -4 -517 -5z"/>
<path d="M6538 9203 l-418 -3 0 -1240 0 -1240 85 0 85 0 0 555 0 555 560 0
560 0 0 80 0 80 -560 0 -560 0 0 530 0 530 595 0 595 0 0 75 0 75 -167 0 c-93
0 -211 2 -263 3 -52 2 -283 2 -512 0z"/>
<path d="M3760 7960 l0 -1240 80 0 80 0 -1 888 c-1 488 -4 981 -8 1096 -3 114
-3 212 0 217 3 5 337 -488 742 -1096 l737 -1105 85 0 85 0 0 1240 0 1240 -81
0 -81 0 4 -1100 c2 -855 0 -1097 -9 -1087 -7 7 -338 500 -736 1097 l-724 1085
-86 3 -87 3 0 -1241z"/>
<path d="M11418 8358 c-3 -857 -3 -1170 0 -1470 l2 -168 675 0 676 0 -3 78 -3
77 -590 0 -590 0 -3 531 -2 531 31 7 c17 3 269 6 560 6 l529 0 0 75 0 75 -557
2 -558 3 0 470 0 470 590 5 590 5 4 73 3 72 -676 0 -676 0 -2 -842z"/>
<path d="M10287 6366 c-78 -28 -116 -91 -126 -205 l-6 -74 -50 -14 c-56 -17
-75 -29 -75 -49 0 -9 19 -14 63 -16 l62 -3 3 -308 2 -308 48 3 47 3 3 308 2
307 84 0 c78 0 84 1 90 23 12 45 9 47 -68 47 -103 0 -106 2 -106 66 0 67 23
117 65 140 28 15 42 16 94 7 68 -11 66 -12 75 34 7 30 5 32 -31 42 -52 15
-130 13 -176 -3z"/>
<path d="M12562 5883 l3 -488 48 -3 47 -3 0 490 0 491 -50 0 -50 0 2 -487z"/>
<path d="M10579 6319 c-17 -17 -20 -29 -15 -57 6 -40 19 -52 58 -52 52 0 76
72 38 110 -26 26 -55 25 -81 -1z"/>
<path d="M11521 6314 c-34 -43 -11 -104 40 -104 54 0 78 59 43 108 -21 30 -58
28 -83 -4z"/>
<path d="M9372 6311 c-122 -35 -204 -113 -253 -240 -31 -79 -38 -287 -14 -381
45 -175 153 -275 326 -301 144 -23 286 17 373 104 84 85 126 204 126 362 0
149 -37 262 -113 350 -92 106 -283 152 -445 106z m285 -107 c62 -30 105 -79
135 -154 19 -47 22 -74 22 -195 0 -123 -2 -147 -23 -199 -30 -75 -78 -128
-144 -157 -42 -20 -68 -24 -142 -23 -77 0 -97 4 -140 26 -64 34 -98 70 -129
138 -86 190 -40 457 95 547 85 56 227 64 326 17z"/>
<path d="M11019 6058 c-117 -61 -165 -167 -157 -347 6 -124 28 -187 86 -244
63 -61 122 -82 232 -81 118 0 154 16 164 70 4 20 5 38 3 41 -3 2 -32 -3 -65
-11 -125 -33 -223 -12 -270 58 -73 108 -69 305 8 398 55 66 147 80 278 42 19
-5 24 -1 37 30 9 20 13 41 10 45 -9 16 -95 31 -179 31 -76 0 -91 -3 -147 -32z"/>
<path d="M11985 6083 c-11 -3 -42 -14 -68 -26 -44 -18 -48 -22 -42 -46 11 -43
20 -45 97 -23 175 52 266 7 267 -134 1 -49 -8 -54 -110 -54 -161 0 -282 -49
-325 -132 -18 -35 -18 -141 0 -177 20 -37 79 -89 114 -98 35 -10 137 -10 186
0 25 5 55 24 87 54 51 48 51 48 67 -17 7 -31 12 -35 45 -38 l37 -3 0 250 c0
149 -5 271 -11 303 -14 64 -65 120 -124 137 -39 11 -181 13 -220 4z m255 -392
c0 -114 -63 -200 -163 -221 -108 -22 -182 22 -182 109 0 97 62 138 228 150 56
4 105 5 110 3 4 -2 7 -20 7 -41z"/>
<path d="M10570 5735 l0 -345 50 0 50 0 0 345 0 345 -50 0 -50 0 0 -345z"/>
<path d="M11512 5738 l3 -343 48 -3 47 -3 0 345 0 346 -50 0 -50 0 2 -342z"/>
<path d="M13458 5120 c-54 -216 -146 -404 -443 -905 -246 -414 -268 -457 -345
-650 -62 -155 -72 -186 -104 -315 -69 -282 -81 -464 -46 -732 20 -157 80 -500
124 -713 63 -302 110 -722 100 -890 -8 -121 -34 -287 -60 -370 -13 -44 -66
-179 -118 -300 l-94 -220 50 -3 c33 -2 56 2 64 10 7 7 40 81 73 163 33 83 70
158 81 167 26 21 156 64 240 78 159 28 287 30 676 7 532 -30 695 -16 930 78
116 46 225 108 330 188 l83 62 1 49 c0 37 -3 46 -12 39 -7 -5 -41 -31 -74 -57
-76 -59 -132 -76 -244 -76 -175 0 -288 58 -603 312 -60 47 -108 90 -108 94 -1
9 80 41 236 94 l109 37 66 -27 c36 -15 130 -62 209 -104 130 -70 287 -132 381
-151 59 -12 30 1 -50 23 -76 21 -165 59 -255 109 -151 85 -206 112 -263 128
-34 10 -59 22 -55 26 4 4 37 16 71 26 l64 20 161 -72 c236 -105 367 -147 367
-119 0 8 -6 14 -13 14 -17 0 -292 109 -387 153 -45 22 -69 38 -60 41 13 4 363
79 433 92 17 4 27 12 27 24 0 16 -7 17 -67 13 -78 -5 -348 -42 -369 -50 -25
-9 -15 4 24 30 20 14 55 42 77 62 70 63 85 68 183 56 135 -17 154 -15 150 11
-4 26 -19 30 -171 53 -124 18 -358 21 -466 5 -41 -6 -75 -9 -77 -7 -2 2 23 22
56 46 82 57 298 268 388 378 66 80 190 254 249 347 11 19 21 50 21 69 l0 34
-41 -22 c-47 -26 -131 -46 -287 -70 -58 -9 -129 -23 -159 -31 -29 -8 -55 -13
-58 -11 -2 3 18 22 44 43 26 21 68 56 92 76 30 26 66 44 115 59 188 54 296 91
296 100 0 6 -6 9 -13 6 -7 -3 -47 -14 -89 -26 -41 -12 -108 -32 -147 -46 -39
-13 -71 -20 -71 -15 0 4 7 10 15 14 8 3 15 14 15 25 0 30 48 113 175 305 64
98 115 180 112 182 -11 12 -208 -285 -310 -468 -21 -37 -43 -70 -49 -74 -6 -4
1 13 16 37 15 24 45 80 68 124 106 209 170 315 229 379 87 96 65 98 -111 8
-491 -249 -854 -521 -1090 -816 -48 -60 -86 -99 -88 -91 -2 8 15 79 37 157
111 393 135 826 76 1398 -16 155 -40 333 -55 415 -50 271 -91 472 -141 695
-70 318 -77 340 -92 340 -7 0 -20 -32 -29 -70z m46 -73 c10 -41 76 -348 102
-471 16 -78 21 -123 14 -130 -5 -7 -25 -61 -45 -122 -46 -139 -126 -344 -134
-344 -9 0 -3 264 9 405 6 66 12 212 15 325 l4 205 -14 -180 c-8 -99 -24 -279
-35 -400 -11 -121 -20 -239 -20 -263 0 -44 -14 -50 -22 -10 -3 13 -26 88 -52
167 -26 79 -51 176 -55 215 -7 58 -9 63 -10 26 -1 -63 21 -157 74 -320 33
-102 45 -154 45 -197 l-1 -58 -36 90 c-87 222 -104 269 -113 317 -15 79 -12
149 9 188 100 190 241 518 241 562 0 26 17 22 24 -5z m127 -760 c-12 -114 -51
-209 -117 -288 -19 -23 -42 -55 -50 -71 -8 -15 -16 -28 -19 -28 -6 0 17 63 58
155 19 44 54 139 77 210 54 168 52 164 57 142 3 -10 0 -64 -6 -120z m-439 41
c3 -24 39 -131 81 -238 41 -107 83 -222 92 -255 26 -94 26 -94 42 -56 8 19 45
75 83 125 134 177 163 241 163 356 0 59 2 51 23 -75 58 -350 89 -663 82 -842
-4 -94 -8 -115 -32 -163 -53 -103 -87 -147 -232 -305 -45 -49 -99 -112 -119
-138 -20 -27 -39 -46 -42 -43 -5 4 1 82 27 361 5 55 12 152 15 215 3 63 8 157
10 208 3 50 1 92 -4 92 -4 0 -11 -42 -15 -92 -4 -51 -11 -133 -17 -183 -23
-200 -50 -422 -55 -454 l-6 -34 -38 71 c-54 99 -92 157 -202 307 -166 228
-217 336 -235 505 -5 50 -2 63 31 127 19 40 88 159 152 265 64 106 130 216
147 245 17 29 34 50 37 48 4 -3 10 -24 12 -47z m-346 -848 c25 -69 134 -260
174 -305 10 -11 34 -47 55 -80 l37 -60 -94 95 c-52 52 -111 115 -132 140 l-38
45 31 -45 c17 -25 73 -94 124 -154 132 -155 171 -210 219 -305 41 -79 43 -88
41 -160 -2 -62 -68 -431 -103 -571 -4 -19 -11 -56 -15 -82 -3 -27 -10 -48 -15
-48 -5 0 -31 46 -58 103 -48 100 -139 227 -237 332 -37 39 -40 41 -16 10 104
-132 143 -187 175 -244 20 -35 35 -66 32 -68 -2 -2 -26 27 -53 64 -27 37 -96
122 -153 188 -124 144 -198 243 -234 312 -66 126 -50 408 39 668 52 154 63
183 92 238 l27 52 6 -30 c5 -25 7 -22 12 25 3 30 11 69 18 85 13 29 13 28 26
-51 7 -44 25 -114 40 -154z m899 -459 c-35 -106 -120 -220 -230 -309 -38 -31
-103 -88 -142 -126 -40 -38 -73 -62 -73 -55 1 52 84 168 243 339 88 95 205
256 209 288 1 9 3 -7 5 -36 3 -32 -2 -73 -12 -101z m1189 77 c-4 -7 -22 -31
-40 -53 -44 -55 -106 -162 -198 -342 -59 -115 -86 -157 -109 -172 -18 -11 -63
-44 -102 -74 -38 -30 -71 -54 -73 -52 -13 12 179 421 222 472 14 16 27 40 31
54 6 25 18 33 145 102 41 22 86 48 100 58 30 22 33 23 24 7z m-1177 -130 c-3
-8 -6 -5 -6 6 -1 11 2 17 5 13 3 -3 4 -12 1 -19z m852 -99 c-49 -72 -152 -284
-200 -413 -33 -86 -36 -90 -126 -168 -51 -44 -97 -87 -103 -96 -47 -81 79 237
153 383 55 111 101 178 177 259 66 70 132 120 138 105 2 -4 -16 -36 -39 -70z
m-876 -71 c-32 -235 -39 -252 -188 -434 -63 -76 -326 -347 -332 -341 -2 2 3
33 11 68 8 35 24 123 36 194 26 154 49 198 157 293 37 33 109 96 158 140 50
44 106 102 125 130 19 29 38 52 41 52 3 0 0 -46 -8 -102z m762 50 c-93 -116
-121 -159 -174 -270 -70 -145 -161 -359 -161 -377 0 -15 -62 -102 -87 -122 -9
-8 -5 2 9 21 14 19 46 94 71 165 100 285 164 408 284 542 65 72 109 103 58 41z
m-145 -100 c-55 -70 -137 -240 -195 -408 -82 -240 -93 -257 -263 -416 -82 -76
-162 -150 -178 -164 -16 -14 -41 -41 -56 -60 -25 -32 -24 -28 13 65 22 55 58
172 81 260 35 138 84 273 95 262 2 -2 -4 -24 -12 -48 -20 -54 -69 -279 -62
-285 2 -2 14 35 27 83 99 383 101 386 472 666 42 32 84 67 94 78 34 38 25 18
-16 -33z m-1717 -240 c21 -32 72 -99 115 -149 162 -190 208 -249 248 -316 46
-76 94 -200 94 -239 0 -80 -186 -698 -293 -974 -39 -102 -67 -153 -53 -100 20
80 28 222 23 395 -8 276 -20 352 -141 920 -43 205 -86 494 -86 578 l0 42 28
-50 c16 -27 45 -76 65 -107z m1027 -81 c-31 -82 -89 -154 -257 -317 -81 -80
-160 -160 -175 -177 -29 -36 -38 -40 -38 -19 0 24 83 127 216 267 71 75 161
179 199 233 39 53 71 90 73 83 2 -8 -7 -39 -18 -70z m1220 -1 c0 -2 -7 -7 -16
-10 -8 -3 -12 -2 -9 4 6 10 25 14 25 6z m-1015 -68 c-52 -60 -59 -66 -49 -47
12 23 78 96 83 93 2 -2 -13 -23 -34 -46z m955 48 c0 -2 -30 -9 -67 -16 -38 -7
-73 -18 -78 -25 -6 -7 -42 -17 -80 -24 -137 -24 -229 -52 -299 -91 -42 -24
-60 -31 -45 -18 33 29 169 113 183 114 6 0 65 10 131 22 239 44 255 46 255 38z
m100 -21 c0 -19 -129 -180 -158 -199 -51 -32 -171 -69 -342 -106 -275 -59
-315 -70 -398 -110 -96 -46 -109 -49 -65 -17 17 12 77 63 133 112 200 177 233
193 575 266 99 21 194 43 210 48 36 11 45 13 45 6z m-170 -15 c-14 -4 -36 -8
-50 -8 -22 0 -22 1 5 8 17 4 39 8 50 8 16 0 15 -2 -5 -8z m-948 -93 c-6 -7
-24 -60 -41 -117 -106 -372 -127 -437 -160 -493 -31 -54 -346 -377 -367 -377
-23 0 -17 15 40 102 68 105 185 327 265 503 34 74 83 165 108 203 47 68 150
192 160 192 3 0 1 -6 -5 -13z m-225 -148 c-66 -199 -186 -447 -355 -734 -67
-113 -212 -327 -258 -380 -30 -36 -30 -35 20 125 33 105 57 192 145 529 17 65
42 131 57 155 15 22 114 127 221 232 106 105 194 198 194 205 1 8 4 5 6 -7 2
-11 -12 -67 -30 -125z m1161 4 c-8 -10 -49 -59 -91 -110 -104 -123 -209 -218
-282 -253 -43 -20 -134 -43 -320 -80 -218 -43 -341 -75 -470 -124 -22 -8 241
252 318 314 60 49 231 107 461 156 87 19 209 51 270 73 132 46 133 46 114 24z
m-433 -429 c-132 -112 -466 -286 -675 -350 -51 -16 -288 -56 -301 -52 -5 2 39
53 98 115 l108 112 155 39 c85 22 209 52 275 67 66 15 172 42 235 60 140 40
142 41 105 9z m414 -130 c2 -2 2 -5 0 -7 -2 -2 -33 -26 -69 -53 -129 -101
-185 -127 -385 -183 -60 -17 -146 -45 -190 -62 -126 -48 -185 -68 -185 -63 0
8 82 96 200 215 128 130 149 141 295 158 72 9 324 5 334 -5z m-580 -67 c-14
-12 -47 -39 -73 -60 -26 -21 -93 -93 -150 -159 l-104 -120 -182 -95 c-101 -51
-195 -103 -210 -113 -31 -22 -84 -44 -78 -33 2 5 23 49 47 98 83 175 103 213
133 249 16 20 36 36 44 36 66 0 391 119 539 198 52 27 67 27 34 -1z m-658
-266 c-22 -32 -63 -104 -91 -160 -86 -172 -112 -209 -178 -254 -33 -23 -88
-61 -122 -85 -34 -24 -63 -42 -65 -40 -2 2 49 68 112 148 144 181 260 332 295
384 24 36 60 65 81 66 4 0 -10 -26 -32 -59z m-278 -2 c-33 -34 -40 -31 -19 10
11 20 21 28 31 25 12 -5 9 -12 -12 -35z m163 -26 c-86 -91 -180 -206 -295
-362 -185 -251 -210 -284 -246 -323 -20 -21 -40 -38 -45 -38 -5 0 3 35 19 78
15 42 40 114 55 158 33 99 60 137 257 352 84 92 154 169 156 171 5 7 75 19
116 20 l37 1 -54 -57z m727 -226 c264 -209 398 -281 560 -302 26 -3 47 -9 47
-13 -1 -8 -149 -76 -223 -102 -100 -35 -340 -74 -388 -64 -159 36 -350 123
-517 237 -79 53 -150 97 -158 97 -8 0 -14 3 -14 8 1 11 105 75 235 142 111 57
123 61 167 56 89 -12 178 -64 346 -199 155 -125 270 -175 412 -182 l85 -4 -75
9 c-74 10 -192 46 -260 80 -20 10 -73 49 -119 87 -168 139 -245 193 -308 214
-35 11 -63 24 -63 27 0 9 70 40 90 41 8 0 90 -59 183 -132z m-613 -210 c41
-22 114 -67 163 -99 89 -60 192 -112 281 -142 98 -33 87 -37 -89 -29 -93 4
-303 8 -465 8 -298 0 -330 -3 -453 -42 -27 -8 -50 -13 -53 -11 -10 10 279 229
451 340 49 32 65 29 165 -25z"/>
<path d="M13382 3605 c0 -16 2 -22 5 -12 2 9 2 23 0 30 -3 6 -5 -1 -5 -18z"/>
<path d="M12920 3574 c0 -10 5 -26 10 -34 8 -11 9 -7 4 15 -8 37 -14 45 -14
19z"/>
<path d="M12940 3515 c0 -17 89 -189 111 -215 l21 -25 -18 30 c-10 17 -40 73
-66 125 -26 52 -48 91 -48 85z"/>
<path d="M13660 3173 c-18 -32 -52 -83 -75 -113 -59 -78 -64 -91 -19 -48 42
40 92 117 119 181 22 54 12 46 -25 -20z"/>
<path d="M13456 2914 c-9 -24 -7 -28 9 -14 17 14 20 30 6 30 -5 0 -12 -7 -15
-16z"/>
<path d="M12761 3514 c0 -11 3 -14 6 -6 3 7 2 16 -1 19 -3 4 -6 -2 -5 -13z"/>
<path d="M12770 3474 c0 -10 5 -26 10 -34 8 -11 9 -7 4 15 -8 37 -14 45 -14
19z"/>
<path d="M12790 3414 c0 -6 7 -19 16 -30 14 -18 14 -18 3 6 -14 31 -19 36 -19
24z"/>
<path d="M12830 3340 c6 -11 13 -20 16 -20 2 0 0 9 -6 20 -6 11 -13 20 -16 20
-2 0 0 -9 6 -20z"/>
<path d="M12590 2836 c0 -17 112 -211 159 -273 75 -101 67 -72 -13 45 -40 59
-85 130 -99 157 -31 60 -47 83 -47 71z"/>
<path d="M14595 2779 c-29 -61 -38 -85 -24 -69 25 28 83 150 75 157 -3 3 -25
-37 -51 -88z"/>
<path d="M14515 2619 c-4 -6 -5 -12 -2 -15 2 -3 7 2 10 11 7 17 1 20 -8 4z"/>
<path d="M13902 2288 c-34 -77 -54 -136 -50 -149 2 -7 15 19 27 57 13 38 30
82 38 97 8 16 12 31 9 34 -2 3 -13 -15 -24 -39z"/>
<path d="M13761 1924 c0 -11 3 -14 6 -6 3 7 2 16 -1 19 -3 4 -6 -2 -5 -13z"/>
<path d="M12915 2026 c10 -14 19 -26 22 -26 7 0 -17 39 -28 46 -6 3 -3 -5 6
-20z"/>
<path d="M14333 2113 c-13 -2 -23 -9 -23 -14 0 -13 13 -11 36 6 10 8 17 14 14
13 -3 0 -15 -3 -27 -5z"/>
<path d="M13395 1990 c-3 -5 -2 -10 4 -10 5 0 13 5 16 10 3 6 2 10 -4 10 -5 0
-13 -4 -16 -10z"/>
<path d="M13305 1917 c-51 -59 -83 -114 -52 -89 20 17 79 102 70 102 -4 -1
-13 -6 -18 -13z"/>
<path d="M14270 1780 c-21 -7 -21 -8 -5 -9 11 0 27 4 35 9 18 11 5 11 -30 0z"/>
<path d="M14198 1753 c6 -2 18 -2 25 0 6 3 1 5 -13 5 -14 0 -19 -2 -12 -5z"/>
<path d="M14200 1471 c-41 -38 -73 -71 -69 -75 3 -3 38 28 79 69 41 41 72 75
70 75 -3 0 -39 -31 -80 -69z"/>
<path d="M13496 1168 c-16 -23 -23 -39 -15 -36 14 5 54 66 48 73 -2 2 -17 -15
-33 -37z"/>
<path d="M13620 776 c0 -2 7 -7 16 -10 8 -3 12 -2 9 4 -6 10 -25 14 -25 6z"/>
<path d="M13710 729 c133 -73 340 -180 340 -175 0 11 -77 54 -228 130 -152 77
-213 101 -112 45z"/>
<path d="M14120 580 c0 -5 16 -10 36 -10 21 0 33 4 29 10 -3 6 -19 10 -36 10
-16 0 -29 -4 -29 -10z"/>
<path d="M14912 2814 c-77 -71 -113 -114 -95 -114 16 0 186 166 182 178 -2 7
-39 -20 -87 -64z"/>
<path d="M11482 2718 c15 -69 11 -428 -6 -553 -9 -60 -36 -209 -61 -330 -87
-428 -99 -519 -100 -735 0 -154 4 -213 19 -280 54 -252 134 -410 274 -546 133
-129 346 -259 414 -252 l33 3 -50 29 c-208 121 -266 158 -324 206 -265 223
-370 551 -322 1005 13 120 49 349 60 377 5 14 16 -1 43 -59 62 -133 171 -239
453 -438 202 -143 240 -181 254 -254 16 -83 51 -365 51 -412 l0 -41 -39 49
c-84 106 -234 237 -470 412 -51 39 -125 100 -162 136 -38 36 -69 60 -69 53 0
-23 153 -162 295 -268 132 -99 366 -317 427 -400 23 -31 27 -48 34 -145 l7
-109 -64 56 c-98 86 -207 160 -326 222 -59 32 -153 86 -208 121 -105 68 -131
79 -99 44 31 -35 162 -119 241 -156 77 -35 199 -108 243 -143 14 -11 -47 14
-135 56 -88 42 -171 81 -185 87 -14 6 -68 40 -120 75 -72 49 -88 57 -65 32 49
-52 150 -113 345 -208 202 -99 292 -154 345 -213 29 -33 35 -47 35 -85 0 -59
24 -55 28 4 2 29 18 66 51 120 82 132 171 265 171 255 0 -28 -45 -172 -76
-244 -60 -139 -74 -179 -65 -179 39 0 169 303 205 477 52 247 57 500 16 764
-23 154 -40 216 -99 379 -155 423 -425 768 -798 1018 -54 37 -193 112 -206
112 -3 0 -1 -19 5 -42z m128 -55 c52 -31 182 -125 210 -153 16 -16 19 -29 14
-67 -7 -61 -35 -205 -41 -216 -3 -5 -38 58 -78 140 -66 134 -142 273 -150 273
-2 0 34 -78 80 -174 97 -202 117 -246 107 -246 -4 0 -53 44 -110 98 l-103 97
-10 95 c-6 52 -12 119 -15 148 l-6 52 29 -11 c15 -5 48 -22 73 -36z m264 -198
c6 -15 -9 -152 -20 -190 -12 -40 -45 -107 -51 -102 -2 3 5 43 16 89 12 46 24
113 28 151 6 65 15 83 27 52z m286 -313 c0 -34 -32 -159 -65 -257 -14 -38 -36
-110 -51 -159 -14 -48 -29 -84 -33 -80 -5 5 -27 64 -50 132 -22 67 -64 177
-92 243 -33 80 -47 125 -40 132 16 21 52 155 58 223 l6 67 134 -136 c108 -110
133 -141 133 -165z m-357 -37 c44 -90 131 -311 164 -419 4 -11 -17 7 -46 40
-72 81 -124 127 -209 186 -41 27 -103 78 -139 112 l-66 62 11 95 c6 52 14 119
17 149 l6 55 118 -115 c79 -76 127 -132 144 -165z m407 -23 c0 -39 -43 -220
-61 -254 -25 -49 -33 -45 -14 7 11 34 46 253 44 273 -1 4 -1 12 0 17 2 14 31
-26 31 -43z m-535 -161 c89 -58 231 -198 283 -279 40 -61 86 -191 118 -328 9
-38 26 -108 39 -156 12 -49 19 -88 15 -88 -4 0 -26 23 -49 50 -38 45 -202 186
-398 342 -78 63 -185 178 -217 233 l-20 35 23 143 c33 210 24 195 85 141 28
-26 83 -67 121 -93z m628 32 c102 -169 161 -311 219 -525 36 -132 31 -253 -16
-392 -35 -103 -136 -317 -206 -435 -17 -30 -35 -73 -39 -95 -7 -38 -8 -36 -15
39 -5 44 -22 159 -38 255 -44 258 -44 247 -13 315 106 239 175 436 188 534 9
73 -11 33 -48 -97 -19 -67 -56 -170 -83 -229 -27 -59 -57 -132 -66 -160 -10
-29 -21 -53 -25 -53 -4 0 -13 26 -20 58 -7 31 -33 129 -57 217 l-45 160 75
155 c76 157 106 244 106 310 0 31 6 50 16 50 1 0 31 -48 67 -107z m-192 -196
c-10 -9 -11 -8 -5 6 3 10 9 15 12 12 3 -3 0 -11 -7 -18z m-618 -119 c57 -79
128 -147 347 -335 172 -147 267 -239 257 -250 -3 -2 -34 19 -70 49 -35 29
-131 99 -214 156 -170 115 -279 220 -329 317 -30 56 -52 125 -41 125 3 0 26
-28 50 -62z m1033 -678 c-32 -55 -59 -100 -61 -100 -3 0 5 24 16 53 51 128 67
175 72 217 3 25 7 52 8 60 1 8 6 -17 12 -57 l10 -72 -57 -101z m44 -225 c-9
-85 -14 -106 -39 -140 -76 -103 -211 -305 -232 -345 l-24 -45 -9 121 -9 121
40 59 c64 96 127 210 205 369 l73 150 3 -95 c2 -52 -2 -140 -8 -195z m-46
-217 c-9 -18 -58 -96 -108 -173 -51 -77 -102 -156 -115 -175 l-22 -35 7 35
c10 51 44 114 115 212 35 48 80 110 99 137 38 54 52 53 24 -1z"/>
<path d="M11783 2375 c0 -27 2 -38 4 -22 2 15 2 37 0 50 -2 12 -4 0 -4 -28z"/>
<path d="M12090 2031 c0 -17 2 -31 4 -31 8 0 13 51 5 56 -5 3 -9 -9 -9 -25z"/>
<path d="M12372 1757 c-1 -30 1 -38 8 -27 11 18 13 70 3 70 -5 0 -9 -19 -11
-43z"/>
<path d="M12333 1745 c0 -27 2 -38 4 -22 2 15 2 37 0 50 -2 12 -4 0 -4 -28z"/>
<path d="M12295 1575 c-15 -64 -26 -118 -23 -120 2 -2 17 47 32 111 16 63 26
117 24 120 -3 2 -18 -48 -33 -111z"/>
<path d="M12463 580 c-21 -26 -44 -72 -30 -60 11 10 58 82 55 85 -2 1 -13 -10
-25 -25z"/>
<path d="M14727 1525 c-4 -8 -2 -17 3 -20 6 -4 10 3 10 14 0 25 -6 27 -13 6z"/>
<path d="M4037 1275 c-24 -50 -20 -58 4 -12 11 22 19 41 17 43 -3 2 -12 -12
-21 -31z"/>
<path d="M14756 1276 c6 -16 34 -30 42 -21 6 5 -28 34 -40 35 -4 0 -5 -6 -2
-14z"/>
<path d="M14916 1215 c17 -8 44 -17 60 -20 l29 -6 -25 14 c-14 8 -41 17 -60
20 l-35 6 31 -14z"/>
<path d="M5550 1198 c-136 -7 -342 -45 -459 -84 -323 -108 -606 -348 -764
-647 -74 -140 -167 -417 -152 -455 9 -25 27 2 70 108 87 216 178 360 321 510
120 125 314 275 347 268 7 -1 44 19 82 44 39 25 84 52 100 60 46 23 178 65
300 94 102 25 126 27 325 28 118 0 228 -3 243 -7 27 -7 21 -11 -75 -58 -177
-87 -246 -154 -548 -537 l-135 -171 -170 -72 c-200 -85 -509 -234 -525 -255
-11 -12 -6 -12 34 0 41 13 46 13 35 0 -17 -21 59 10 197 79 131 67 250 121
322 149 43 16 66 19 125 13 120 -10 296 -35 397 -56 310 -65 481 -84 614 -69
50 6 100 13 113 16 13 4 23 4 23 1 0 -3 -45 -33 -100 -67 -55 -33 -100 -63
-100 -67 0 -3 12 -2 27 1 15 4 29 3 33 -3 8 -14 77 23 235 128 412 274 597
355 876 381 144 14 353 -18 503 -76 18 -7 19 -6 2 22 -45 75 -661 376 -1051
513 -261 92 -564 166 -805 197 -104 13 -315 19 -440 12z m638 -124 c69 -14
176 -41 237 -59 262 -79 359 -111 362 -121 2 -6 -30 -21 -74 -34 -45 -13 -185
-78 -329 -151 -138 -70 -268 -130 -290 -134 -243 -41 -512 -106 -694 -167 -36
-12 -72 -23 -80 -26 -8 -3 26 38 76 89 50 52 133 143 184 202 130 152 212 231
299 288 82 53 86 69 5 18 -101 -64 -187 -144 -342 -316 -162 -181 -284 -303
-304 -303 -6 0 9 24 34 53 24 28 98 122 165 207 228 293 338 390 517 456 78
29 82 29 234 -2z m686 -213 c3 -5 -22 -16 -57 -26 -34 -9 -116 -46 -182 -82
-203 -109 -280 -142 -357 -153 -39 -6 -73 -9 -74 -7 -2 2 31 22 74 44 42 22
135 70 205 107 70 37 167 80 215 96 86 29 166 38 176 21z m334 -132 c163 -67
301 -124 305 -128 4 -5 -37 -11 -92 -14 -206 -13 -388 -69 -651 -202 -174 -89
-225 -100 -435 -99 -151 0 -192 5 -365 37 -107 20 -255 44 -327 53 -73 10
-133 21 -133 25 0 8 404 108 560 138 197 38 616 77 910 84 52 2 -11 4 -140 5
-129 1 -278 -3 -330 -8 -52 -5 -95 -8 -97 -7 -1 1 79 44 177 95 141 73 262
127 318 141 1 1 136 -53 300 -120z m-1563 -368 c72 -13 200 -38 285 -56 85
-19 202 -38 260 -44 97 -9 269 -2 360 13 64 11 -140 -82 -219 -100 -116 -26
-312 -15 -536 29 -211 43 -398 73 -509 82 -65 6 -76 9 -60 18 42 24 240 86
264 83 14 -2 84 -13 155 -25z"/>
<path d="M6025 970 c-3 -6 1 -7 9 -4 18 7 21 14 7 14 -6 0 -13 -4 -16 -10z"/>
<path d="M5824 844 c-18 -14 -18 -15 4 -4 12 6 22 13 22 15 0 8 -5 6 -26 -11z"/>
<path d="M5918 373 c7 -3 16 -2 19 1 4 3 -2 6 -13 5 -11 0 -14 -3 -6 -6z"/>
<path d="M11416 1187 c3 -10 9 -15 12 -12 3 3 0 11 -7 18 -10 9 -11 8 -5 -6z"/>
<path d="M4818 803 c-94 -98 -161 -211 -233 -395 -76 -193 -108 -272 -139
-341 -30 -65 -17 -69 15 -4 12 23 57 136 101 252 44 115 98 243 120 283 44 81
138 202 193 251 20 17 32 31 27 31 -5 0 -42 -35 -84 -77z"/>
<path d="M14420 833 c0 -1 18 -12 41 -23 49 -26 180 -60 226 -60 55 0 29 17
-37 23 -34 4 -99 20 -146 35 -46 16 -84 27 -84 25z"/>
<path d="M14808 793 c7 -3 16 -2 19 1 4 3 -2 6 -13 5 -11 0 -14 -3 -6 -6z"/>
<path d="M4696 483 c-6 -14 -5 -15 5 -6 7 7 10 15 7 18 -3 3 -9 -2 -12 -12z"/>
<path d="M4641 334 c0 -11 3 -14 6 -6 3 7 2 16 -1 19 -3 4 -6 -2 -5 -13z"/>
<path d="M13366 314 c-178 -35 -307 -97 -444 -211 -56 -48 -88 -92 -58 -80 9
4 24 10 33 14 13 5 15 3 10 -11 -8 -21 5 -14 51 28 83 76 200 149 272 171 19
6 8 -10 -46 -66 -77 -81 -117 -134 -112 -148 5 -15 29 8 90 84 75 93 125 141
171 160 48 20 47 9 -4 -40 -39 -39 -138 -156 -154 -184 -19 -33 20 7 111 112
53 62 103 116 111 121 19 11 379 3 390 -8 4 -5 2 -11 -6 -14 -18 -6 -180 -130
-206 -157 -11 -12 -33 -36 -50 -54 l-30 -33 35 17 c19 10 64 46 100 80 101 96
176 145 222 145 21 0 38 -4 38 -10 0 -5 -5 -10 -12 -10 -24 0 -194 -121 -243
-172 l-50 -52 48 37 c26 20 66 52 90 71 59 47 187 116 217 116 14 0 79 -16
145 -36 66 -20 130 -38 143 -41 25 -6 40 -23 20 -23 -20 0 -165 -70 -146 -70
9 0 29 5 43 12 31 14 58 -3 37 -24 -17 -17 -15 -25 6 -24 26 2 122 86 122 107
0 24 -48 48 -187 93 -327 105 -571 137 -757 100z"/>
<path d="M13490 65 c0 -8 7 -15 16 -15 14 0 14 3 4 15 -7 8 -14 15 -16 15 -2
0 -4 -7 -4 -15z"/>
</g>
</svg>
